<svg width="681" height="99" viewBox="0 0 681 99" fill="none" xmlns="http://www.w3.org/2000/svg">
<path d="M353.631 7.36816H318.855V76.5311H353.631V7.36816Z" fill="#3D8BFF"/>
<path d="M418.13 77.6305C437.835 77.6305 453.809 61.6565 453.809 41.9515C453.809 22.2465 437.835 6.27246 418.13 6.27246C398.425 6.27246 382.451 22.2465 382.451 41.9515C382.451 61.6565 398.425 77.6305 418.13 77.6305Z" fill="#3D8BFF"/>
<path d="M365.033 83.8967H358.329L377.407 0H384.11L365.033 83.8967Z" fill="#232529"/>
<path d="M466.778 2.37109H488.933V7.82085H472.483V17.9045H487.304V23.3026H472.483V33.3863H488.933V38.8361H466.778V2.37109Z" fill="#232529"/>
<path d="M500.952 25.647L491.988 12.8633H498.507L504.263 21.3181H504.415L509.915 12.8633H516.638L507.573 25.647L516.74 38.838H510.119L504.313 30.0781H504.16L498.507 38.838H491.886L500.952 25.647Z" fill="#232529"/>
<path d="M527.975 39.0827C526.956 38.7025 526.125 38.2005 525.48 37.5778C524.019 36.0901 523.29 34.0672 523.29 31.5053V17.8036H518.756V12.8631H523.29V5.5293H528.892V12.8631H535.207V17.8036H528.892V30.3339C528.892 31.7612 529.164 32.7702 529.707 33.3621C530.216 34.0586 531.098 34.4056 532.355 34.4056C532.932 34.4056 533.441 34.3293 533.883 34.1767C534.324 34.0241 534.8 33.778 535.309 33.4384V38.8883C534.188 39.3978 532.83 39.6525 531.235 39.6525C530.081 39.6537 528.994 39.463 527.975 39.0827Z" fill="#232529"/>
<path d="M543.738 37.8698C541.717 36.6811 540.138 35.0433 539.001 32.9551C537.863 30.867 537.295 28.5155 537.295 25.9006C537.295 23.4224 537.846 21.1213 538.95 19C540.052 16.8786 541.589 15.1891 543.559 13.9327C545.528 12.6776 547.769 12.0488 550.281 12.0488C552.896 12.0488 555.162 12.6259 557.081 13.7802C559 14.9344 560.459 16.5131 561.462 18.5164C562.463 20.5209 562.964 22.7776 562.964 25.2903C562.964 25.7665 562.914 26.3596 562.812 27.0733H542.897C543.1 29.4851 543.958 31.3432 545.469 32.65C546.979 33.958 548.736 34.6102 550.74 34.6102C552.336 34.6102 553.719 34.2459 554.891 33.515C556.062 32.7853 557.005 31.7923 557.717 30.536L562.454 32.7767C561.232 34.9153 559.634 36.5962 557.666 37.8193C555.696 39.0412 553.337 39.6528 550.587 39.6528C548.042 39.6528 545.758 39.0585 543.738 37.8698ZM557.26 22.7948C557.191 21.8781 556.903 20.97 556.393 20.0693C555.884 19.1698 555.111 18.4142 554.076 17.8027C553.04 17.1911 551.775 16.886 550.281 16.886C548.481 16.886 546.962 17.42 545.724 18.4905C544.483 19.5599 543.627 20.9946 543.152 22.7948H557.26Z" fill="#232529"/>
<path d="M567.281 12.8634H572.629V16.2756H572.884C573.631 15.0537 574.743 14.0435 576.22 13.2449C577.697 12.4475 579.267 12.0488 580.932 12.0488C584.089 12.0488 586.491 12.9742 588.139 14.8249C589.785 16.6755 590.608 19.1968 590.608 22.3875V38.8382H585.006V23.1517C585.006 21.1152 584.505 19.6214 583.503 18.6702C582.502 17.7202 581.117 17.244 579.353 17.244C578.096 17.244 576.975 17.5923 575.991 18.2887C575.005 18.9852 574.242 19.9105 573.699 21.0648C573.155 22.219 572.884 23.4581 572.884 24.7833V38.8406H567.281V12.8634Z" fill="#232529"/>
<path d="M600.904 37.8706C599.002 36.682 597.5 35.0442 596.397 32.9561C595.293 30.868 594.742 28.4994 594.742 25.8514C594.742 23.2034 595.293 20.8347 596.397 18.7466C597.5 16.6585 599.002 15.0208 600.904 13.8321C602.805 12.6435 604.928 12.0504 607.271 12.0504C609.104 12.0504 610.751 12.4577 612.211 13.2723C613.671 14.0868 614.774 15.0885 615.521 16.2771H615.776L615.521 12.6103V2.37402H621.124V38.839H615.776V35.4774H615.521C614.774 36.6315 613.671 37.6159 612.211 38.4317C610.751 39.2463 609.104 39.6536 607.271 39.6536C604.928 39.6536 602.807 39.0593 600.904 37.8706ZM611.88 33.4397C613.052 32.7273 613.994 31.7084 614.707 30.3844C615.419 29.0604 615.776 27.5494 615.776 25.8514C615.776 24.1534 615.419 22.6522 614.707 21.3442C613.994 20.0374 613.052 19.0272 611.88 18.3135C610.709 17.6011 609.444 17.2442 608.085 17.2442C606.727 17.2442 605.453 17.6011 604.266 18.3135C603.077 19.026 602.126 20.0374 601.414 21.3442C600.701 22.6522 600.345 24.1534 600.345 25.8514C600.345 27.5494 600.701 29.0604 601.414 30.3844C602.126 31.7084 603.077 32.7273 604.266 33.4397C605.453 34.1521 606.727 34.509 608.085 34.509C609.444 34.5102 610.709 34.1534 611.88 33.4397Z" fill="#232529"/>
<path d="M631.885 37.8698C629.865 36.6811 628.286 35.0433 627.149 32.9551C626.011 30.867 625.443 28.5155 625.443 25.9006C625.443 23.4224 625.994 21.1213 627.098 19C628.2 16.8786 629.737 15.1891 631.707 13.9327C633.676 12.6776 635.917 12.0488 638.429 12.0488C641.044 12.0488 643.311 12.6259 645.229 13.7802C647.147 14.9344 648.607 16.5131 649.61 18.5164C650.61 20.5209 651.112 22.7776 651.112 25.2903C651.112 25.7665 651.062 26.3596 650.96 27.0733H631.046C631.25 29.4851 632.107 31.3432 633.618 32.65C635.128 33.958 636.885 34.6102 638.89 34.6102C640.485 34.6102 641.87 34.2459 643.04 33.515C644.211 32.7853 645.154 31.7923 645.866 30.536L650.603 32.7767C649.381 34.9153 647.784 36.5962 645.815 37.8193C643.845 39.0412 641.486 39.6528 638.736 39.6528C636.19 39.6528 633.906 39.0585 631.885 37.8698ZM645.407 22.7948C645.339 21.8781 645.051 20.97 644.541 20.0693C644.032 19.1698 643.259 18.4142 642.224 17.8027C641.188 17.1911 639.923 16.886 638.429 16.886C636.629 16.886 635.111 17.42 633.871 18.4905C632.631 19.5599 631.775 20.9946 631.3 22.7948H645.407Z" fill="#232529"/>
<path d="M660.187 37.8706C658.284 36.682 656.782 35.0442 655.679 32.9561C654.576 30.868 654.024 28.4994 654.024 25.8514C654.024 23.2034 654.576 20.8347 655.679 18.7466C656.782 16.6585 658.284 15.0208 660.187 13.8321C662.088 12.6435 664.21 12.0504 666.553 12.0504C668.386 12.0504 670.033 12.4577 671.493 13.2723C672.953 14.0868 674.056 15.0885 674.803 16.2771H675.058L674.803 12.6103V2.37402H680.406V38.839H675.058V35.4774H674.803C674.056 36.6315 672.953 37.6159 671.493 38.4317C670.033 39.2463 668.386 39.6536 666.553 39.6536C664.21 39.6536 662.088 39.0593 660.187 37.8706ZM671.162 33.4397C672.334 32.7273 673.276 31.7084 673.989 30.3844C674.701 29.0604 675.058 27.5494 675.058 25.8514C675.058 24.1534 674.701 22.6522 673.989 21.3442C673.276 20.0374 672.334 19.0272 671.162 18.3135C669.991 17.6011 668.726 17.2442 667.368 17.2442C666.009 17.2442 664.736 17.6011 663.548 18.3135C662.36 19.026 661.408 20.0374 660.696 21.3442C659.984 22.6522 659.627 24.1534 659.627 25.8514C659.627 27.5494 659.984 29.0604 660.696 30.3844C661.408 31.7084 662.36 32.7273 663.548 33.4397C664.736 34.1521 666.009 34.509 667.368 34.509C668.726 34.5102 669.991 34.1534 671.162 33.4397Z" fill="#232529"/>
<path d="M0 41.4505C0 21.3506 16.8601 4.98029 36.9969 4.98029C46.3412 4.82648 55.3532 8.44778 61.9954 15.0272L54.9324 22.0594C50.1225 17.418 43.6784 14.8623 36.9969 14.9447C22.3308 14.9447 10.8676 26.7561 10.8676 41.4518C10.8676 56.1474 22.3111 67.9514 36.9969 67.9514C46.5098 67.9514 51.9263 64.1295 55.3988 60.6559C58.2461 57.8073 60.1066 53.7074 60.8215 48.1493H36.9969V38.1578H70.5091C70.8881 40.22 71.0677 42.3143 71.0431 44.4111C71.0431 51.8801 69.0017 61.1272 62.4199 67.7139C56.0029 74.3561 47.8239 77.8789 36.9981 77.8789C16.8601 77.8789 0 61.5504 0 41.4505Z" fill="#202124"/>
<path d="M98.1034 68.6578C90.9925 68.6578 84.8622 62.7872 84.8622 54.4285C84.8622 46.0698 90.9937 40.1992 98.1034 40.1992C105.213 40.1992 111.346 45.98 111.346 54.4285C111.346 62.877 105.214 68.6652 98.1034 68.6652V68.6578ZM98.1034 30.9521C85.1255 30.9521 74.5496 40.8255 74.5496 54.4297C74.5496 68.0339 85.1243 77.879 98.1034 77.879C111.083 77.879 121.657 67.9158 121.657 54.4014C121.657 40.887 111.081 30.9521 98.1034 30.9521Z" fill="#202124"/>
<path d="M149.488 68.6578C142.377 68.6578 136.246 62.7872 136.246 54.4285C136.246 46.0698 142.377 40.1992 149.488 40.1992C156.599 40.1992 162.73 45.98 162.73 54.4285C162.73 62.877 156.598 68.6652 149.488 68.6652V68.6578ZM149.488 30.9521C136.511 30.9521 125.935 40.8255 125.935 54.4297C125.935 68.0339 136.511 77.879 149.488 77.879C162.466 77.879 173.042 67.9158 173.042 54.4014C173.042 40.887 162.466 30.9521 149.488 30.9521Z" fill="#202124"/>
<path d="M239.759 7.47559H229.448V76.4896H239.759V7.47559Z" fill="#202124"/>
<path d="M239.759 7.47559H229.448V76.4896H239.759V7.47559Z" fill="#202124"/>
<path d="M267.23 40.0248C271.32 40.0248 274.785 42.0674 275.938 45.007L254.961 53.72C254.69 44.6464 261.981 40.026 267.224 40.026H267.23M268.028 68.6642C262.785 68.6642 259.049 66.2599 256.654 61.5496L288.033 48.5643L286.978 45.9175C285.02 40.672 279.068 30.9795 266.889 30.9795C254.71 30.9795 244.759 40.4985 244.759 54.4571C244.759 67.6171 254.716 77.9347 268.049 77.9347C275.905 77.9753 283.253 74.0587 287.603 67.5125L279.603 62.1771C276.917 66.0655 273.271 68.6642 268.028 68.6642Z" fill="#202124"/>
<path d="M200.756 68.6635C193.645 68.6635 187.687 62.7018 187.687 54.524C187.687 46.3463 193.645 40.2049 200.756 40.2049C207.867 40.2049 213.255 46.2503 213.255 54.524C213.255 62.7978 207.764 68.6635 200.743 68.6635H200.756ZM212.561 32.3754V36.1899H212.207C209.895 33.4102 205.451 30.9443 199.854 30.9443C188.119 30.9443 177.364 41.2619 177.364 54.5118C177.364 67.7616 188.119 77.8774 199.854 77.8774C205.452 77.8774 209.895 75.3894 212.207 72.5408H212.561V75.9185C212.561 84.9022 207.764 89.7023 200.062 89.7023C193.751 89.7023 189.841 85.1655 188.258 81.3658L179.279 85.104C182.738 93.5562 190.984 99.0564 200.111 98.9998C212.201 98.9998 222.423 91.8852 222.423 74.5428V32.3766H212.561V32.3754Z" fill="#202124"/>
<path d="M466.802 54.9551H470.526V64.8311H481.565V54.9551H485.255V78.7629H481.565V68.3553H470.526V78.7629H466.802V54.9551Z" fill="#232529"/>
<path d="M491.679 78.5778C490.726 78.1016 489.984 77.4261 489.452 76.55C488.921 75.6738 488.655 74.6821 488.655 73.5734C488.655 71.8224 489.314 70.4368 490.633 69.4167C491.953 68.3979 493.62 67.8872 495.638 67.8872C496.636 67.8872 497.533 67.982 498.331 68.1702C499.129 68.3585 499.761 68.564 500.226 68.7855V67.9204C500.226 66.8782 499.839 66.0304 499.062 65.377C498.286 64.7236 497.288 64.3962 496.07 64.3962C495.205 64.3962 494.391 64.5845 493.626 64.9611C492.861 65.3388 492.245 65.8593 491.78 66.5238L489.22 64.5624C489.973 63.5214 490.948 62.7117 492.146 62.1346C493.343 61.5587 494.673 61.2695 496.136 61.2695C498.597 61.2695 500.492 61.8737 501.822 63.0821C503.153 64.2904 503.817 65.991 503.817 68.1862V78.76H500.226V76.7321H500.06C499.572 77.4642 498.885 78.0733 497.999 78.5606C497.112 79.0479 496.092 79.2915 494.94 79.2915C493.718 79.2928 492.632 79.054 491.679 78.5778ZM497.964 75.6357C498.672 75.2149 499.227 74.6501 499.626 73.9401C500.025 73.2313 500.224 72.4659 500.224 71.6452C499.713 71.3572 499.121 71.1246 498.445 70.9475C497.768 70.7703 497.065 70.6817 496.333 70.6817C494.959 70.6817 493.95 70.9536 493.307 71.4963C492.664 72.0402 492.343 72.7428 492.343 73.6078C492.343 74.3843 492.642 75.0217 493.241 75.52C493.839 76.0184 494.615 76.2682 495.569 76.2682C496.455 76.267 497.254 76.0565 497.964 75.6357Z" fill="#232529"/>
<path d="M507.377 61.8033H510.868V64.0305H511.034C511.521 63.2319 512.247 62.5736 513.212 62.0519C514.176 61.5314 515.201 61.2705 516.288 61.2705C518.349 61.2705 519.918 61.8747 520.993 63.083C522.069 64.2914 522.607 65.9378 522.607 68.0211V78.7609H518.948V68.5194C518.948 67.1892 518.621 66.2147 517.968 65.5933C517.314 64.9731 516.41 64.6618 515.258 64.6618C514.437 64.6618 513.706 64.8894 513.064 65.3435C512.42 65.7976 511.922 66.4017 511.568 67.156C511.213 67.9103 511.036 68.7188 511.036 69.5838V78.7609H507.379V61.8033H507.377Z" fill="#232529"/>
<path d="M529.53 78.1125C528.178 77.3262 527.125 76.2445 526.372 74.8701C525.617 73.4956 525.241 71.9661 525.241 70.2815C525.241 68.5969 525.617 67.0674 526.372 65.6929C527.125 64.3185 528.178 63.2381 529.53 62.4506C530.883 61.6643 532.412 61.2705 534.119 61.2705C535.826 61.2705 537.355 61.6692 538.708 62.4678C540.06 63.2664 541.113 64.3529 541.866 65.7262C542.619 67.1006 542.997 68.6191 542.997 70.2815C542.997 71.9661 542.619 73.4956 541.866 74.8701C541.112 76.2445 540.059 77.3249 538.708 78.1125C537.355 78.8988 535.826 79.2925 534.119 79.2925C532.412 79.2925 530.883 78.8988 529.53 78.1125ZM536.713 75.2528C537.511 74.7987 538.148 74.1441 538.625 73.2913C539.101 72.4386 539.34 71.4345 539.34 70.2827C539.34 69.131 539.101 68.133 538.625 67.2901C538.148 66.4472 537.511 65.8 536.713 65.3447C535.915 64.8907 535.05 64.663 534.119 64.663C533.187 64.663 532.324 64.8907 531.525 65.3447C530.726 65.7988 530.089 66.4472 529.613 67.2901C529.135 68.133 528.898 69.131 528.898 70.2827C528.898 71.4357 529.137 72.4386 529.613 73.2913C530.089 74.1453 530.726 74.7987 531.525 75.2528C532.324 75.7068 533.187 75.9344 534.119 75.9344C535.05 75.9344 535.915 75.7081 536.713 75.2528Z" fill="#232529"/>
<path d="M545.903 58.628C545.426 58.1518 545.188 57.5698 545.188 56.8819C545.188 56.1953 545.427 55.6132 545.903 55.1358C546.379 54.6596 546.962 54.4209 547.649 54.4209C548.336 54.4209 548.918 54.6596 549.395 55.1358C549.872 55.6132 550.11 56.1941 550.11 56.8819C550.11 57.5698 549.872 58.1506 549.395 58.628C548.918 59.1054 548.337 59.3429 547.649 59.3429C546.962 59.3429 546.379 59.1054 545.903 58.628ZM545.82 61.8039H549.478V78.7615H545.82V61.8039Z" fill="#232529"/>
<path d="M560.719 74.8565C561.444 74.1317 562.872 72.6982 565.004 70.5559C567.134 68.4136 568.55 66.9579 569.254 66.1876C570.205 65.1675 570.857 64.3406 571.209 63.7057C571.56 63.0719 571.736 62.3115 571.736 61.428C571.736 60.5445 571.396 59.7742 570.716 59.1159C570.036 58.4588 569.118 58.1302 567.962 58.1302C566.896 58.1302 566.029 58.4416 565.361 59.0654C564.692 59.6893 564.256 60.4079 564.051 61.2237L560.651 59.8296C560.878 59.0137 561.302 58.209 561.926 57.4153C562.55 56.6216 563.383 55.9535 564.425 55.4096C565.468 54.8657 566.669 54.5938 568.029 54.5938C569.502 54.5938 570.812 54.894 571.956 55.4945C573.1 56.095 573.984 56.9108 574.608 57.942C575.232 58.9731 575.543 60.1126 575.543 61.3591C575.543 62.6966 575.197 63.9825 574.506 65.218C573.814 66.4534 572.936 67.6039 571.871 68.6683C571.417 69.099 570.273 70.2323 568.437 72.0682L565.648 74.8565L565.717 74.9931H575.849V78.393H560.72V74.8565H560.719Z" fill="#232529"/>
<path d="M582.855 77.3224C581.405 76.2457 580.289 74.7839 579.506 72.9369C578.725 71.0899 578.333 69.0325 578.333 66.7659C578.333 64.4772 578.725 62.4087 579.506 60.5605C580.287 58.7135 581.405 57.2578 582.855 56.1922C584.306 55.1266 585.983 54.5938 587.887 54.5938C589.791 54.5938 591.463 55.1266 592.901 56.1922C594.341 57.2578 595.451 58.7147 596.234 60.5605C597.015 62.4087 597.406 64.4759 597.406 66.7659C597.406 69.0325 597.015 71.0899 596.234 72.9369C595.452 74.7851 594.335 76.247 592.885 77.3224C591.435 78.3991 589.768 78.9381 587.887 78.9381C585.983 78.9369 584.306 78.3979 582.855 77.3224ZM590.93 74.2622C591.802 73.503 592.471 72.4718 592.936 71.1687C593.4 69.8656 593.632 68.3976 593.632 66.7659C593.632 65.1343 593.4 63.6614 592.936 62.3459C592.471 61.0318 591.801 60.0006 590.93 59.2525C590.056 58.5043 589.044 58.1302 587.887 58.1302C586.708 58.1302 585.688 58.5043 584.827 59.2525C583.965 60.0006 583.302 61.0318 582.838 62.3459C582.373 63.6614 582.141 65.1343 582.141 66.7659C582.141 68.3976 582.372 69.8656 582.838 71.1687C583.302 72.4718 583.965 73.503 584.827 74.2622C585.688 75.0214 586.708 75.4016 587.887 75.4016C589.044 75.4016 590.058 75.0214 590.93 74.2622Z" fill="#232529"/>
<path d="M599.542 74.8565C600.267 74.1317 601.696 72.6982 603.826 70.5559C605.956 68.4136 607.372 66.9579 608.076 66.1876C609.027 65.1675 609.679 64.3406 610.031 63.7057C610.382 63.0719 610.558 62.3115 610.558 61.428C610.558 60.5445 610.218 59.7742 609.538 59.1159C608.858 58.4588 607.94 58.1302 606.784 58.1302C605.718 58.1302 604.851 58.4416 604.182 59.0654C603.514 59.6893 603.077 60.4079 602.873 61.2237L599.473 59.8296C599.7 59.0137 600.124 58.209 600.748 57.4153C601.372 56.6216 602.205 55.9535 603.247 55.4096C604.289 54.8657 605.49 54.5938 606.851 54.5938C608.324 54.5938 609.634 54.894 610.778 55.4945C611.922 56.095 612.806 56.9108 613.43 57.942C614.054 58.9731 614.365 60.1126 614.365 61.3591C614.365 62.6966 614.019 63.9825 613.328 65.218C612.636 66.4534 611.757 67.6039 610.693 68.6683C610.239 69.099 609.095 70.2323 607.259 72.0682L604.47 74.8565L604.539 74.9931H614.671V78.393H599.542V74.8565Z" fill="#232529"/>
<path d="M619.999 76.9125C618.536 75.9268 617.528 74.481 616.974 72.5749L620.364 71.1783C620.674 72.3534 621.212 73.2615 621.976 73.9039C622.74 74.5474 623.666 74.8674 624.752 74.8674C625.86 74.8674 626.813 74.5302 627.611 73.8534C628.408 73.1779 628.807 72.319 628.807 71.2768C628.807 70.2136 628.386 69.3436 627.543 68.6669C626.7 67.9913 625.648 67.6529 624.386 67.6529H622.424V64.2961H624.186C625.272 64.2961 626.186 64.0032 626.929 63.415C627.671 62.8281 628.043 62.0246 628.043 61.0057C628.043 60.0976 627.71 59.3716 627.046 58.8289C626.381 58.2863 625.539 58.0144 624.52 58.0144C623.523 58.0144 622.731 58.2801 622.144 58.8117C621.557 59.3433 621.13 59.9979 620.864 60.7731L617.507 59.3765C617.95 58.114 618.771 57.0004 619.967 56.0357C621.163 55.071 622.692 54.5898 624.554 54.5898C625.927 54.5898 627.164 54.8556 628.26 55.3872C629.357 55.9188 630.216 56.6559 630.836 57.5972C631.456 58.5398 631.766 59.5968 631.766 60.7719C631.766 61.968 631.478 62.9819 630.902 63.8137C630.325 64.6443 629.616 65.2817 628.775 65.7247V65.9241C629.882 66.3892 630.792 67.0992 631.5 68.0516C632.209 69.0052 632.564 70.1459 632.564 71.4748C632.564 72.8038 632.225 73.99 631.55 75.031C630.873 76.0733 629.938 76.8928 628.74 77.4908C627.543 78.0888 626.214 78.3879 624.751 78.3879C623.046 78.3915 621.461 77.8981 619.999 76.9125Z" fill="#232529"/>
</svg>
