<svg width="66" height="66" viewBox="0 0 66 66" fill="none" xmlns="http://www.w3.org/2000/svg">
<path d="M64.2464 32.8712C64.307 28.803 63.5319 24.7656 61.9692 21.0091C60.4065 17.2525 58.0893 13.8567 55.1612 11.0318C52.2968 8.10742 48.8657 5.79847 45.0779 4.2463C41.2901 2.69413 37.2254 1.93141 33.1325 2.00484C29.0401 1.93397 24.9761 2.69787 21.1886 4.24989C17.4012 5.80191 13.9698 8.10949 11.1039 11.0318C8.16478 13.8644 5.84014 17.2716 4.27463 21.0413C2.70912 24.811 1.93626 28.8627 2.00413 32.944C1.94541 37.0132 2.72275 41.0512 4.28801 44.8078C5.85327 48.5645 8.17312 51.9597 11.1039 54.7834C13.9655 57.7124 17.3957 60.0255 21.184 61.5803C24.9722 63.1352 29.0383 63.899 33.1325 63.8249C37.2259 63.893 41.2903 63.1264 45.0777 61.5719C48.865 60.0174 52.296 57.7076 55.1612 54.7834C58.0977 51.9495 60.4196 48.5418 61.9826 44.7721C63.5456 41.0024 64.3161 36.9514 64.2464 32.8712Z" fill="#202125" stroke="#202124" stroke-width="2.78088" stroke-miterlimit="10"/>
<path d="M26.0571 14.6872C25.7929 14.926 25.5784 15.2145 25.4259 15.5363C25.2733 15.8581 25.1858 16.2068 25.1682 16.5625C25.1506 16.9182 25.2034 17.2738 25.3234 17.6091C25.4435 17.9444 25.6285 18.2527 25.8678 18.5164L38.9714 32.9449L25.8678 47.3735C25.4163 47.8981 25.184 48.5764 25.2193 49.2677C25.2545 49.959 25.5545 50.6102 26.0571 51.0862C26.3195 51.3251 26.6266 51.5098 26.9607 51.6296C27.2948 51.7495 27.6492 51.8021 28.0037 51.7845C28.3582 51.7669 28.7057 51.6795 29.0263 51.5271C29.3469 51.3748 29.6342 51.1606 29.8717 50.8969L46.0328 33.0468L45.8436 32.8721L46.0328 32.6974L29.8717 14.8182C29.382 14.2972 28.706 13.991 27.9914 13.9664C27.2768 13.9419 26.5814 14.201 26.0571 14.6872Z" fill="white"/>
</svg>
