<svg width="66" height="66" viewBox="0 0 66 66" fill="none" xmlns="http://www.w3.org/2000/svg">
<path d="M64.2461 33.1606C64.304 29.0526 63.5262 24.9763 61.961 21.1839C60.3958 17.3915 58.0764 13.9637 55.1464 11.1125C49.2761 5.27325 41.366 2 33.125 2C24.884 2 16.9738 5.27325 11.1036 11.1125C8.16659 13.9738 5.84333 17.4138 4.27798 21.2192C2.71263 25.0246 1.93858 29.1142 2.00384 33.2341C2.00762 37.351 2.81673 41.4265 4.38475 45.2268C5.95277 49.0272 8.24882 52.4774 11.1411 55.3796C14.0334 58.2818 17.4649 60.5787 21.2387 62.1385C25.0126 63.6983 29.0544 64.4902 33.1323 64.4689C37.2235 64.5374 41.2856 63.7633 45.0705 62.1939C48.8555 60.6246 52.2839 58.2928 55.1464 55.341C58.0934 52.4751 60.4227 49.0259 61.9885 45.2093C63.5543 41.3927 64.3229 37.2909 64.2461 33.1606Z" fill="#202125" stroke="#202124" stroke-width="2.78088" stroke-miterlimit="10"/>
<path d="M38.9548 51.5497C39.2185 51.3099 39.4326 51.0198 39.585 50.6962C39.7373 50.3726 39.8248 50.0217 39.8424 49.6638C39.86 49.306 39.8073 48.9481 39.6875 48.6109C39.5676 48.2736 39.383 47.9636 39.144 47.6986L26.1132 33.1321L39.144 18.5657C39.3834 18.2995 39.5684 17.9882 39.6884 17.6498C39.8085 17.3113 39.8612 16.9522 39.8436 16.5932C39.826 16.2341 39.7385 15.882 39.586 15.5572C39.4334 15.2323 39.2189 14.941 38.9548 14.6999C38.4186 14.2174 37.7154 13.9683 36.9982 14.0068C36.281 14.0454 35.6079 14.3684 35.1256 14.9057L18.979 32.9558L19.1683 33.1321L18.979 33.3085L35.1256 51.3586C35.3644 51.6253 35.6529 51.8418 35.9747 51.9958C36.2965 52.1498 36.6452 52.2382 37.0009 52.2559C37.3566 52.2737 37.7122 52.2204 38.0475 52.0992C38.3828 51.9781 38.6911 51.7913 38.9548 51.5497Z" fill="white"/>
</svg>
