<svg xmlns="http://www.w3.org/2000/svg" width="344" height="227" fill="none"><path fill="#202124" d="M175.23 204.253C175.23 177.527 188.971 0 230.361 0h59.456c-82.781 0-110.262 177.525-110.262 204.253"/><path stroke="#202124" stroke-miterlimit="10" stroke-width="1.091" d="M175.23 204.253C175.23 177.527 188.971 0 230.361 0h59.456c-82.781 0-110.262 177.525-110.262 204.253"/><path fill="#38A852" d="M170.909 204.253V0h-59.456c41.391 0 55.131 177.525 55.131 204.253"/><path stroke="#202124" stroke-linecap="round" stroke-linejoin="round" stroke-width="1.091" d="M170.909 204.253V0h-59.456c41.391 0 55.131 177.525 55.131 204.253"/><path fill="#428EFF" d="M162.262 204.253C162.262 177.527 134.781 0 52.001 0H-7.456c124.171 0 165.393 177.525 165.393 204.253"/><path stroke="#202124" stroke-linecap="round" stroke-linejoin="round" stroke-width="1.091" d="M162.262 204.253C162.262 177.527 134.781 0 52.001 0H-7.456c124.171 0 165.393 177.525 165.393 204.253"/><path fill="#DADCE0" d="M183.879 204.253C183.879 177.527 225.101 0 349.272 0h-59.455c-82.781 0-110.262 177.525-110.262 204.253"/><path stroke="#202124" stroke-linecap="round" stroke-linejoin="round" stroke-width="1.091" d="M183.879 204.253C183.879 177.527 225.101 0 349.272 0h-59.455c-82.781 0-110.262 177.525-110.262 204.253"/><path fill="#FFBB01" d="M175.231 204.253C175.231 177.527 188.971 0 230.362 0h-59.456v204.253"/><path stroke="#202124" stroke-linecap="round" stroke-linejoin="round" stroke-width="1.091" d="M175.231 204.253C175.231 177.527 188.971 0 230.362 0h-59.456v204.253"/><path fill="#FF5145" d="M166.587 204.253C166.587 177.527 152.846 0 111.456 0H52c82.781 0 110.262 177.525 110.262 204.253"/><path stroke="#202124" stroke-linecap="round" stroke-linejoin="round" stroke-width="1.091" d="M166.587 204.253C166.587 177.527 152.846 0 111.456 0H52c82.781 0 110.262 177.525 110.262 204.253"/><path fill="#202124" stroke="#202124" stroke-miterlimit="10" stroke-width="1.091" d="M163.024 188.353c-3.423.167-9.412 8.543-20.024 38.268h-27.91c21.836-30.579 33.907-38.586 40.658-38.262l7.278-.006h-.002Z"/><path fill="#DADCE0" stroke="#202124" stroke-linecap="round" stroke-linejoin="round" stroke-width="1.091" d="M87.178 226.624c32.102-29.971 50.107-38.246 60.338-38.27l8.228.01c-6.751-.324-18.822 7.681-40.658 38.262h-27.91l.002-.002Z"/><path fill="#FFBB01" stroke="#202124" stroke-linecap="round" stroke-linejoin="round" stroke-width="1.091" d="M170.91 188.359v38.408l-27.91-.146c10.917-30.579 16.954-38.586 20.329-38.262h7.581Z"/><path fill="#FF5145" stroke="#202124" stroke-linecap="round" stroke-linejoin="round" stroke-width="1.091" d="M178.795 188.353c3.423.167 9.412 8.543 20.024 38.268h27.91c-21.836-30.579-33.907-38.586-40.658-38.262l-7.278-.006h.002Z"/><path fill="#428EFF" stroke="#202124" stroke-linecap="round" stroke-linejoin="round" stroke-width="1.091" d="M254.641 226.624c-32.103-29.971-50.107-38.246-60.339-38.27l-8.228.01c6.751-.324 18.822 7.681 40.658 38.262h27.911l-.002-.002Z"/><path fill="#38A852" stroke="#202124" stroke-linecap="round" stroke-linejoin="round" stroke-width="1.091" d="M170.91 188.359v38.408l27.91-.146c-10.917-30.579-16.954-38.586-20.329-38.262h-7.581Z"/></svg>