<svg xmlns="http://www.w3.org/2000/svg" width="87" height="82" fill="none"><path stroke="#202124" stroke-miterlimit="10" stroke-width="1.5" d="M75.088 42.639V21.822M22.485 11.411h42.192"/><path fill="#FFBB01" stroke="#202124" stroke-miterlimit="10" stroke-width="1.5" d="M1.5 28.963c0 5.794 4.697 10.492 10.492 10.492 5.795 0 10.492-4.698 10.492-10.492v-17.47C22.484 5.697 17.787 1 11.992 1 6.197 1 1.5 5.698 1.5 11.492v17.47ZM64.513 11.492c0 5.795 4.698 10.492 10.493 10.492 5.794 0 10.492-4.697 10.492-10.492C85.498 5.698 80.8 1 75.006 1 69.21 1 64.513 5.698 64.513 11.492Z"/><path fill="#fff" stroke="#202124" stroke-miterlimit="10" stroke-width="1.5" d="M22.484 81V60.016H1.502v20.982h20.982Z"/><path fill="#E8EAED" stroke="#202124" stroke-miterlimit="10" stroke-width="1.5" d="M54.031 21.983V1H33.048v20.983h20.983Z"/><path stroke="#202124" stroke-miterlimit="10" stroke-width="1.5" d="M11.984 60.272V39.455"/><path fill="#FFBB01" stroke="#202124" stroke-miterlimit="10" stroke-width="1.5" d="M85.498 70.589V45.932c0-5.75-4.661-10.412-10.41-10.412-5.75 0-10.412 4.662-10.412 10.411V70.59c0 5.75 4.661 10.411 10.411 10.411s10.411-4.661 10.411-10.411Z"/><path stroke="#202124" stroke-miterlimit="10" stroke-width="1.5" d="M43.307 71.137H22.485M43.307 50.315v20.822"/><path fill="#FFBB01" stroke="#202124" stroke-miterlimit="10" stroke-width="1.5" d="M32.886 43.821c0 5.795 4.697 10.493 10.492 10.493 5.795 0 10.492-4.698 10.492-10.493 0-5.794-4.697-10.492-10.492-10.492-5.795 0-10.492 4.698-10.492 10.492Z"/><path fill="#202124" stroke="#202124" stroke-miterlimit="10" stroke-width="1.5" d="M40.567 70.763a2.914 2.914 0 1 0 5.828 0 2.914 2.914 0 0 0-5.828 0Z"/></svg>