<svg xmlns="http://www.w3.org/2000/svg" width="303" height="170" fill="none"><rect width="302" height="170" x=".75" fill="#428EFF" rx="12"/><path stroke="#202124" stroke-miterlimit="10" stroke-width="2" d="M20.75 40h262M20.75 128h262M260.75 42v42H25.25v44.5"/><path fill="#fff" stroke="#202124" stroke-miterlimit="10" stroke-width="2" d="M32.136 40.693a5.693 5.693 0 1 0-11.386 0 5.693 5.693 0 0 0 11.386 0Z"/><path fill="#FFBB01" stroke="#202124" stroke-miterlimit="10" stroke-width="2" d="M32.136 128.693a5.693 5.693 0 1 0-11.386 0 5.693 5.693 0 0 0 11.386 0ZM126.136 40.693a5.693 5.693 0 1 0-11.386 0 5.693 5.693 0 0 0 11.386 0ZM220.136 40.693a5.693 5.693 0 1 0-11.386 0 5.693 5.693 0 0 0 11.386 0ZM220.136 128.693a5.693 5.693 0 1 0-11.386 0 5.693 5.693 0 0 0 11.386 0ZM52.75 24v32.998a4 4 0 0 0 4 4h32.998a4 4 0 0 0 4-4V24a4 4 0 0 0-4-4H56.75a4 4 0 0 0-4 4ZM167.249 60.998c11.322 0 20.499-9.178 20.499-20.5 0-11.32-9.177-20.498-20.499-20.498-11.321 0-20.499 9.177-20.499 20.499 0 11.321 9.178 20.499 20.499 20.499Z"/><path fill="#fff" stroke="#202124" stroke-miterlimit="10" stroke-width="2" d="M261.249 149.998c11.322 0 20.499-9.178 20.499-20.499 0-11.322-9.177-20.499-20.499-20.499-11.321 0-20.499 9.177-20.499 20.499 0 11.321 9.178 20.499 20.499 20.499Z"/><path fill="#FFBB01" stroke="#202124" stroke-miterlimit="10" stroke-width="2" d="M240.75 23v33a4 4 0 0 0 4 4h33a4 4 0 0 0 4-4V23a4 4 0 0 0-4-4h-33a4 4 0 0 0-4 4ZM167.25 108h-94c-11.322 0-20.5 9.178-20.5 20.5s9.178 20.5 20.5 20.5h94c11.322 0 20.5-9.178 20.5-20.5s-9.178-20.5-20.5-20.5Z"/><path fill="#428EFF" stroke="#202124" stroke-miterlimit="10" stroke-width="2" d="M166.458 138.416c2.692 0 4.979-.944 6.872-2.836 1.888-1.888 2.836-4.18 2.836-6.872s-.944-4.979-2.836-6.872c-1.888-1.887-4.18-2.836-6.872-2.836s-4.979.944-6.872 2.836c-1.887 1.888-2.836 4.18-2.836 6.872s.944 4.979 2.836 6.872c1.888 1.888 4.18 2.836 6.872 2.836Z"/></svg>