<svg xmlns="http://www.w3.org/2000/svg" width="303" height="170" fill="none"><g stroke="#202124" stroke-miterlimit="10" stroke-width="2" clip-path="url(#a)"><path d="m-47 221.298 119.733-97.941h156.854l119.736 97.941H-46.999Z"/><path d="m32.605 221.298 71.634-97.941h93.848l71.635 97.941H32.605Z"/><path d="m108.646 221.298 25.688-97.941h33.656l25.688 97.941h-85.032ZM39.758 150.333H262.57M349.323-50 229.586 47.941H72.732L-47-50h396.323Z"/><path d="m269.721-50-71.634 97.941h-93.848L32.604-50h237.117Z"/><path d="M193.678-50 167.99 47.941h-33.656L108.646-50h85.032ZM262.569 20.965H39.758"/><path fill="#FFBB01" d="m200.005 85.926-30.265 17.476c-7.12 4.113-9.565 13.224-5.452 20.353 4.113 7.129 13.214 9.565 20.343 5.452l52.294-30.208-36.92-13.078v.005Z"/><path fill="#38A852" d="M177.202 41a14.887 14.887 0 0 0-12.91 7.457c-4.113 7.13-1.677 16.24 5.452 20.353l52.294 30.208c7.13 4.113 16.231 1.677 20.344-5.452 4.113-7.13 1.677-16.24-5.453-20.353l-52.294-30.208A14.813 14.813 0 0 0 177.202 41Z"/><path fill="#FF5145" d="M125.174 41c-2.53 0-5.087.646-7.434 2.005L65.446 73.213l36.452 13.355 30.733-17.758c7.12-4.113 9.565-13.224 5.452-20.353A14.885 14.885 0 0 0 125.174 41Z"/><path fill="#428EFF" d="M72.908 71.203c-5.143 0-10.15 2.665-12.91 7.457-4.112 7.13-1.676 16.24 5.453 20.353l52.294 30.208c7.12 4.113 16.231 1.677 20.344-5.452 4.112-7.129 1.677-16.24-5.453-20.353L80.333 73.208a14.743 14.743 0 0 0-7.425-2.005Z"/></g><defs><clipPath id="a"><path fill="#fff" d="M-48.29-50.32H350v272H-48.29z"/></clipPath></defs></svg>