<svg xmlns="http://www.w3.org/2000/svg" width="198" height="148" fill="none"><path fill="#fff" stroke="#202124" stroke-miterlimit="10" stroke-width="2" d="M175.107 7.4H22.892c-3.812 0-6.902 2.667-6.902 5.956v113.998c0 3.289 3.09 5.955 6.902 5.955h152.215c3.812 0 6.903-2.666 6.903-5.955V13.356c0-3.29-3.091-5.955-6.903-5.955Z"/><path fill="#202124" stroke="#202124" stroke-miterlimit="10" stroke-width=".886" d="M174.499 15.198H23.498c-1.686 0-3.053 1.412-3.053 3.154v109.571c0 1.742 1.367 3.155 3.053 3.155h151.001c1.686 0 3.053-1.413 3.053-3.155V18.353c0-1.743-1.367-3.155-3.053-3.155Z"/><path fill="#FF5145" d="M97.883 71.15c0 8.28-4.256 63.273-17.078 63.273H62.387c25.642 0 34.156-54.992 34.156-63.272"/><path stroke="#202124" stroke-linecap="round" stroke-linejoin="round" stroke-width=".619" d="M97.883 71.15c0 8.28-4.256 63.273-17.078 63.273H62.387c25.642 0 34.156-54.992 34.156-63.272"/><path fill="#FFBD00" d="M99.086 71.15v63.273h18.418c-12.823 0-17.078-54.992-17.078-63.272"/><path stroke="#1A1B1F" stroke-linecap="round" stroke-linejoin="round" stroke-width=".619" d="M99.086 71.15v63.273h18.418c-12.823 0-17.078-54.992-17.078-63.272"/><path fill="#DADCE0" d="M101.762 71.15c0 8.28 8.514 63.273 34.156 63.273h18.418c-38.465 0-51.234-54.992-51.234-63.272"/><path stroke="#1A1B1F" stroke-linecap="round" stroke-linejoin="round" stroke-width=".619" d="M101.762 71.15c0 8.28 8.514 63.273 34.156 63.273h18.418c-38.465 0-51.234-54.992-51.234-63.272"/><path fill="#3788FF" d="M95.205 71.15c0 8.28-12.769 63.273-51.234 63.273h18.416c25.643 0 34.156-54.992 34.156-63.272"/><path stroke="#1A1B1F" stroke-linecap="round" stroke-linejoin="round" stroke-width=".619" d="M95.205 71.15c0 8.28-12.769 63.273-51.234 63.273h18.416c25.643 0 34.156-54.992 34.156-63.272"/><path fill="#31A94E" d="M97.883 71.15c0 8.28-4.256 63.273-17.078 63.273h18.418V71.151"/><path stroke="#202124" stroke-linecap="round" stroke-linejoin="round" stroke-width=".619" d="M97.883 71.15c0 8.28-4.256 63.273-17.078 63.273h18.418V71.151"/><path fill="#202124" d="M100.423 71.15c0 8.28 4.256 63.273 17.078 63.273h18.419c-25.643 0-34.156-54.992-34.156-63.272"/><path stroke="#202124" stroke-linecap="round" stroke-linejoin="round" stroke-width=".619" d="M100.423 71.15c0 8.28 4.256 63.273 17.078 63.273h18.419c-25.643 0-34.156-54.992-34.156-63.272"/><path fill="#FFBD00" d="M72.98 83.388c0 6.541 1.39 8.152 7.03 8.152-5.64 0-7.03 1.61-7.03 8.152 0-6.541-1.39-8.152-7.028-8.152 5.639 0 7.029-1.61 7.029-8.152ZM127.534 81.797c0 8.94 1.898 11.144 9.608 11.144-7.708 0-9.608 2.2-9.608 11.144 0-8.941-1.897-11.144-9.607-11.144 7.707 0 9.607-2.201 9.607-11.144ZM64.966 100.629c0 3.528.75 4.398 3.793 4.398-3.044 0-3.793.869-3.793 4.398 0-3.529-.75-4.398-3.793-4.398 3.043 0 3.793-.87 3.793-4.398Z"/><path fill="#fff" d="M84.263 36.636h-14.9v29.632h14.9V36.635ZM111.895 66.736c8.442 0 15.286-6.844 15.286-15.286s-6.844-15.285-15.286-15.285-15.286 6.843-15.286 15.285 6.844 15.286 15.286 15.286ZM89.15 69.424h-2.872L94.45 33.48h2.872L89.15 69.424Z"/><path fill="#202124" d="M111.952 43.513c0 6.395 1.356 7.968 6.87 7.968-5.514 0-6.87 1.575-6.87 7.968 0-6.395-1.357-7.968-6.87-7.968 5.513 0 6.87-1.575 6.87-7.968Z"/><path fill="#E8EAED" stroke="#202124" stroke-width="2" d="M8.075 128a.38.38 0 0 1 .38-.379h181.089a.38.38 0 0 1 .379.379c0 6.686-5.419 12.106-12.105 12.106H20.181c-6.686 0-12.106-5.42-12.106-12.106Z"/><path fill="#fff" stroke="#202124" stroke-width="2" d="M86.77 131.192a4.041 4.041 0 0 1-4.014-3.571h32.487a4.042 4.042 0 0 1-4.014 3.571h-24.46Z"/><circle cx="97.883" cy="11.3" r="1.671" fill="#202124"/></svg>