<svg xmlns="http://www.w3.org/2000/svg" width="90" height="88" fill="none"><path fill="#fff" stroke="#202124" stroke-miterlimit="10" stroke-width="1.5" d="M67.853 42.048c11.272 0 20.41-9.136 20.41-20.406S79.125 1.235 67.853 1.235c-11.273 0-20.41 9.137-20.41 20.407s9.137 20.406 20.41 20.406Z"/><path fill="#38A852" stroke="#202124" stroke-miterlimit="10" stroke-width="1.5" d="M57.538 86.698c7.644 0 13.84-6.196 13.84-13.838 0-7.643-6.196-13.838-13.84-13.838s-13.84 6.195-13.84 13.838c0 7.642 6.196 13.838 13.84 13.838Z"/><path fill="#E8EAED" stroke="#202124" stroke-miterlimit="10" stroke-width="1.5" d="M30.079 46.836 7.957 55a3.128 3.128 0 0 0-1.852 4.018l9.514 25.77a3.129 3.129 0 0 0 4.019 1.852l22.122-8.165a3.128 3.128 0 0 0 1.851-4.018l-9.514-25.77a3.13 3.13 0 0 0-4.018-1.851Z"/><path fill="#202124" d="M51.361 60.305a3.264 3.264 0 0 1-2.034-.703l-15.602-12.26a3.296 3.296 0 0 1-.556-4.617l8.639-11a3.297 3.297 0 0 1 4.629-.555L62.04 43.428a3.298 3.298 0 0 1 .553 4.63l-8.64 10.992a3.273 3.273 0 0 1-2.592 1.255Z"/><path fill="#202124" d="M44.4 30.634c.7 0 1.38.234 1.93.667l15.608 12.258a3.127 3.127 0 0 1 .527 4.392l-8.638 10.991a3.13 3.13 0 0 1-4.39.529L33.833 47.212a3.126 3.126 0 0 1-.527-4.393l8.628-10.99a3.124 3.124 0 0 1 2.462-1.195m0-.333a3.446 3.446 0 0 0-2.724 1.322l-8.64 10.991a3.461 3.461 0 0 0 .584 4.86l15.606 12.252a3.463 3.463 0 0 0 4.86-.582l8.639-10.985a3.465 3.465 0 0 0-.582-4.86l-15.602-12.26a3.433 3.433 0 0 0-2.138-.738h-.003Z"/><path stroke="#202124" stroke-miterlimit="10" stroke-width="1.5" d="M63.118 1.79 14.59 15.815"/><path fill="#38A852" stroke="#202124" stroke-miterlimit="10" stroke-width="1.5" d="M18.985 49.797c9.564 0 17.318-7.752 17.318-17.315 0-9.563-7.753-17.315-17.318-17.315-9.564 0-17.318 7.752-17.318 17.315 0 9.563 7.754 17.315 17.318 17.315Z"/><path stroke="#202124" stroke-miterlimit="10" stroke-width="1.5" d="M87.172 28.24 71.379 71.93"/><path stroke="#202124" stroke-linejoin="round" stroke-miterlimit="10" stroke-width="1.5" d="m68.28 64.13-5.355-19.556L46.5 31.5"/><path stroke="#202124" stroke-miterlimit="10" stroke-width="1.5" d="m31.542 20.558 15.164 11.04M18.985 86.66H57.54M1.871 35.157l4.27 23.865"/></svg>