<svg xmlns="http://www.w3.org/2000/svg" width="367" height="314" fill="none"><path fill="#FFBB01" stroke="#202124" stroke-linecap="round" stroke-linejoin="round" stroke-width="2" d="M453.292 227c0-81.724-70.786-150.488-166.96-170.763-15.791-33.98-36.349-54.53-58.832-54.53-22.484 0-43.041 20.55-58.833 54.53C72.494 76.512 1.708 145.276 1.708 227s70.786 150.488 166.959 170.763c15.792 33.979 36.349 54.53 58.833 54.53 22.483 0 43.041-20.551 58.832-54.53 96.174-20.275 166.96-89.039 166.96-170.763ZM227.5 17.636c13.016 0 27.051 12.82 39.266 35.194A288.454 288.454 0 0 0 227.5 50.16a288.48 288.48 0 0 0-39.267 2.671c12.216-22.374 26.258-35.194 39.267-35.194Zm48.961 55.972c16.301 40.713 25.281 95.194 25.281 153.399s-8.98 112.678-25.281 153.392c-.453 1.131-.906 2.24-1.367 3.343-15.296 2.728-31.229 4.177-47.587 4.177-16.358 0-32.291-1.449-47.587-4.177a241.524 241.524 0 0 1-1.367-3.343c-16.302-40.714-25.281-95.194-25.281-153.392 0-58.198 8.979-112.678 25.281-153.4.453-1.13.906-2.24 1.367-3.342 15.296-2.728 31.229-4.177 47.587-4.177 16.358 0 32.291 1.449 47.587 4.177.461 1.102.914 2.212 1.367 3.343ZM17.67 227c0-70.961 60.213-131.336 143.512-152.671-14.821 40.141-23.871 93.759-23.871 152.671 0 58.912 9.057 112.53 23.871 152.671C77.883 358.336 17.67 297.961 17.67 227ZM227.5 436.364c-13.016 0-27.051-12.82-39.267-35.195a288.415 288.415 0 0 0 39.267 2.672 288.39 288.39 0 0 0 39.266-2.672c-12.215 22.375-26.258 35.195-39.266 35.195Zm66.325-56.693c14.821-40.141 23.871-93.759 23.871-152.671 0-58.912-9.057-112.53-23.871-152.671C377.124 95.664 437.337 156.039 437.337 227s-60.213 131.336-143.512 152.671Z"/><path fill="#FFBB01" stroke="#202124" stroke-linecap="round" stroke-linejoin="round" stroke-width="2" d="M227.5 1.707C102.796 1.707 1.708 102.576 1.708 227S102.796 452.293 227.5 452.293c124.704 0 225.792-100.869 225.792-225.293S352.204 1.707 227.5 1.707ZM79.122 78.957C118.757 39.41 171.45 17.636 227.5 17.636c56.049 0 108.743 21.78 148.377 61.322 31.562 31.491 51.815 71.25 58.762 114.381-34.763-29.901-114.415-50.813-207.139-50.813-92.725 0-172.37 20.912-207.14 50.813 6.947-43.131 27.2-82.89 58.762-114.382ZM437.33 227c0 14.777-21.372 31.95-55.773 44.82-40.903 15.3-95.614 23.731-154.057 23.731-58.443 0-113.155-8.424-154.057-23.731C39.041 258.95 17.67 241.77 17.67 227s21.371-31.951 55.773-44.82c40.902-15.3 95.614-23.731 154.057-23.731 58.443 0 113.154 8.424 154.057 23.731 34.401 12.869 55.773 30.05 55.773 44.82Zm-61.46 148.042c-39.635 39.548-92.328 61.322-148.377 61.322-56.05 0-108.743-21.781-148.378-61.322-31.562-31.491-51.815-71.251-58.761-114.381 34.762 29.901 114.414 50.812 207.139 50.812 92.724 0 172.369-20.911 207.139-50.812-6.947 43.13-27.2 82.89-58.762 114.381Z"/><path fill="#FFBB01" stroke="#202124" stroke-linecap="round" stroke-linejoin="round" stroke-width="2" d="M227.499 17.636c39.097 0 76.175 21.124 104.423 59.491 29.332 39.838 45.484 93.067 45.484 149.873s-16.152 110.035-45.484 149.873c-28.241 38.36-65.326 59.491-104.423 59.491-39.096 0-76.175-21.124-104.423-59.491C93.745 337.035 77.592 283.806 77.592 227s16.153-110.035 45.484-149.873c28.241-38.36 65.327-59.491 104.423-59.491Zm0-15.93C135.901 1.707 61.638 102.577 61.638 227s74.256 225.293 165.861 225.293c91.606 0 165.862-100.869 165.862-225.293S319.105 1.707 227.499 1.707Z"/></svg>