<svg xmlns="http://www.w3.org/2000/svg" width="367" height="314" fill="none"><path fill="#FFBB01" stroke="#202124" stroke-linecap="round" stroke-linejoin="round" stroke-width="2" d="M452.792 227c0-81.725-70.786-150.488-166.96-170.763-15.791-33.98-36.349-54.53-58.832-54.53-22.484 0-43.041 20.55-58.833 54.53C71.994 76.512 1.208 145.275 1.208 227c0 81.724 70.786 150.487 166.959 170.763 15.792 33.979 36.349 54.53 58.833 54.53 22.483 0 43.041-20.551 58.832-54.53 96.174-20.276 166.96-89.039 166.96-170.763ZM227 17.636c13.016 0 27.051 12.82 39.266 35.194A288.454 288.454 0 0 0 227 50.16a288.48 288.48 0 0 0-39.267 2.671C199.949 30.456 213.991 17.636 227 17.636Zm48.961 55.972c16.301 40.713 25.281 95.194 25.281 153.399s-8.98 112.678-25.281 153.392c-.453 1.131-.906 2.24-1.367 3.343-15.296 2.728-31.229 4.176-47.587 4.176-16.358 0-32.291-1.448-47.587-4.176a241.524 241.524 0 0 1-1.367-3.343c-16.302-40.714-25.281-95.194-25.281-153.392 0-58.198 8.979-112.679 25.281-153.4.453-1.13.906-2.24 1.367-3.342 15.296-2.728 31.229-4.177 47.587-4.177 16.358 0 32.291 1.449 47.587 4.177.461 1.102.914 2.212 1.367 3.343ZM17.17 227c0-70.961 60.213-131.336 143.512-152.672-14.821 40.142-23.871 93.76-23.871 152.672 0 58.911 9.057 112.53 23.871 152.671C77.383 358.335 17.17 297.961 17.17 227ZM227 436.364c-13.016 0-27.051-12.82-39.267-35.195A288.415 288.415 0 0 0 227 403.841a288.39 288.39 0 0 0 39.266-2.672c-12.215 22.375-26.258 35.195-39.266 35.195Zm66.325-56.693c14.821-40.141 23.871-93.76 23.871-152.671 0-58.912-9.057-112.53-23.871-152.672C376.624 95.664 436.837 156.04 436.837 227s-60.213 131.335-143.512 152.671Z"/><path fill="#38A852" stroke="#202124" stroke-linecap="round" stroke-linejoin="round" stroke-width="2" d="M227 1.707C102.296 1.707 1.208 102.576 1.208 227S102.296 452.293 227 452.293c124.704 0 225.792-100.869 225.792-225.293S351.704 1.707 227 1.707ZM78.622 78.957C118.257 39.41 170.95 17.636 227 17.636c56.049 0 108.743 21.78 148.377 61.321 31.562 31.492 51.815 71.251 58.762 114.382-34.763-29.901-114.415-50.813-207.139-50.813-92.725 0-172.37 20.912-207.14 50.813 6.947-43.131 27.2-82.89 58.762-114.382ZM436.83 227c0 14.777-21.372 31.95-55.773 44.82-40.903 15.3-95.614 23.731-154.057 23.731-58.443 0-113.155-8.424-154.057-23.731C38.541 258.95 17.17 241.77 17.17 227c0-14.771 21.371-31.951 55.773-44.82 40.902-15.3 95.614-23.731 154.057-23.731 58.443 0 113.154 8.424 154.057 23.731 34.401 12.869 55.773 30.049 55.773 44.82Zm-61.46 148.042c-39.635 39.548-92.328 61.322-148.377 61.322-56.05 0-108.743-21.781-148.378-61.322-31.562-31.491-51.815-71.251-58.761-114.381 34.762 29.901 114.414 50.812 207.139 50.812 92.724 0 172.369-20.911 207.139-50.812-6.947 43.13-27.2 82.89-58.762 114.381Z"/><path fill="#428EFF" stroke="#202124" stroke-linecap="round" stroke-linejoin="round" stroke-width="2" d="M227 17.636c39.096 0 76.175 21.124 104.423 59.491 29.331 39.837 45.484 93.067 45.484 149.873 0 56.805-16.153 110.035-45.484 149.873-28.241 38.36-65.327 59.491-104.423 59.491-39.097 0-76.175-21.124-104.423-59.491C93.246 337.035 77.093 283.805 77.093 227c0-56.806 16.153-110.036 45.484-149.873C150.818 38.767 187.903 17.636 227 17.636Zm0-15.93C135.401 1.707 61.138 102.577 61.138 227S135.394 452.293 227 452.293c91.605 0 165.861-100.869 165.861-225.293S318.605 1.707 227 1.707Z"/></svg>