<svg xmlns="http://www.w3.org/2000/svg" id="Layer_1" viewBox="0 0 385.74 374.14"><defs><style>.cls-1{fill:#ff5145}.cls-1,.cls-2,.cls-3,.cls-4,.cls-6,.cls-7{stroke:#202124;stroke-miterlimit:10;stroke-width:2px}.cls-2{fill:#e7e9ec}.cls-3{fill:#e8eaed}.cls-4{fill:#fb0}.cls-6{fill:#3d8aff}.cls-7{fill:#38a852}</style></defs><path d="M337.05 295.03c9.95 0 18.41 3.5 25.37 10.51 6.96 7 10.45 15.51 10.45 25.52s-3.48 18.51-10.45 25.52c-6.96 7-15.42 10.51-25.37 10.51H220.78c-9.95 0-18.41-3.5-25.37-10.51-6.96-7-10.45-15.51-10.45-25.52s3.48-18.51 10.45-25.52c6.96-7 15.42-10.51 25.37-10.51h116.27Z" class="cls-1"/><path d="M326.53 320.32c-2.94 2.95-4.4 6.53-4.4 10.73s1.47 7.78 4.4 10.73c2.94 2.95 6.49 4.43 10.67 4.43s7.74-1.48 10.67-4.43c2.94-2.95 4.4-6.53 4.4-10.73s-1.47-7.78-4.4-10.73-6.49-4.43-10.67-4.43-7.74 1.48-10.67 4.43Z" class="cls-4"/><path d="M149.15 295.03c9.95 0 18.41 3.5 25.37 10.51 6.96 7 10.45 15.51 10.45 25.52s-3.48 18.51-10.45 25.52c-6.96 7-15.42 10.51-25.37 10.51H49.26c-9.95 0-18.41-3.5-25.37-10.51-6.96-7-10.45-15.51-10.45-25.52s3.48-18.51 10.45-25.52c6.96-7 15.42-10.51 25.37-10.51h99.89Z" class="cls-6"/><path d="M138.63 320.32c-2.94 2.95-4.4 6.53-4.4 10.73s1.47 7.78 4.4 10.73c2.94 2.95 6.49 4.43 10.67 4.43s7.74-1.48 10.67-4.43c2.94-2.95 4.4-6.53 4.4-10.73s-1.47-7.78-4.4-10.73c-2.94-2.95-6.49-4.43-10.67-4.43s-7.74 1.48-10.67 4.43Z" class="cls-1"/><path d="M337.05 79.28c9.95 0 18.41 3.5 25.37 10.51 6.96 7 10.45 15.51 10.45 25.52s-3.48 18.51-10.45 25.52c-6.96 7-15.42 10.51-25.37 10.51H220.78c-9.95 0-18.41-3.5-25.37-10.51-6.96-7-10.45-15.51-10.45-25.52s3.48-18.51 10.45-25.52c6.96-7 15.42-10.51 25.37-10.51h116.27Z" class="cls-4"/><path d="M326.53 104.57c-2.94 2.95-4.4 6.53-4.4 10.73s1.47 7.78 4.4 10.73c2.94 2.95 6.49 4.43 10.67 4.43s7.74-1.48 10.67-4.43c2.94-2.95 4.4-6.53 4.4-10.73s-1.47-7.78-4.4-10.73c-2.94-2.95-6.49-4.43-10.67-4.43s-7.74 1.48-10.67 4.43Z" class="cls-2"/><path d="M149.15 79.28c9.95 0 18.41 3.5 25.37 10.51 6.96 7 10.45 15.51 10.45 25.52s-3.48 18.51-10.45 25.52c-6.96 7-15.42 10.51-25.37 10.51H49.26c-9.95 0-18.41-3.5-25.37-10.51-6.96-7-10.45-15.51-10.45-25.52s3.48-18.51 10.45-25.52c6.96-7 15.42-10.51 25.37-10.51h99.89Z" class="cls-1"/><path d="M138.63 104.57c-2.94 2.95-4.4 6.53-4.4 10.73s1.47 7.78 4.4 10.73c2.94 2.95 6.49 4.43 10.67 4.43s7.74-1.48 10.67-4.43c2.94-2.95 4.4-6.53 4.4-10.73s-1.47-7.78-4.4-10.73c-2.94-2.95-6.49-4.43-10.67-4.43s-7.74 1.48-10.67 4.43Z" class="cls-4"/><path d="M81.25 151.32c9.95 0 18.41 3.5 25.37 10.51 6.96 7 10.45 15.51 10.45 25.52s-3.48 18.51-10.45 25.52c-6.96 7-15.42 10.51-25.37 10.51H48.69c-9.95 0-18.41-3.5-25.37-10.51-6.96-7-10.45-15.51-10.45-25.52s3.48-18.51 10.45-25.52c6.96-7 15.42-10.51 25.37-10.51h32.56Z" class="cls-2"/><path d="M70.72 176.61c-2.94 2.95-4.4 6.53-4.4 10.73s1.47 7.78 4.4 10.73c2.94 2.95 6.49 4.43 10.67 4.43s7.74-1.48 10.67-4.43c2.94-2.95 4.4-6.53 4.4-10.73s-1.47-7.78-4.4-10.73c-2.94-2.95-6.49-4.43-10.67-4.43s-7.74 1.48-10.67 4.43Z" class="cls-7"/><path d="M337.05 151.32c9.95 0 18.41 3.5 25.37 10.51 6.96 7 10.45 15.51 10.45 25.52s-3.48 18.51-10.45 25.52c-6.96 7-15.42 10.51-25.37 10.51H152.88c-9.95 0-18.41-3.5-25.37-10.51-6.96-7-10.45-15.51-10.45-25.52s3.48-18.51 10.45-25.52c6.96-7 15.42-10.51 25.37-10.51h184.17Z" class="cls-6"/><path d="M326.53 176.61c-2.94 2.95-4.4 6.53-4.4 10.73s1.47 7.78 4.4 10.73c2.94 2.95 6.49 4.43 10.67 4.43s7.74-1.48 10.67-4.43c2.94-2.95 4.4-6.53 4.4-10.73s-1.47-7.78-4.4-10.73-6.49-4.43-10.67-4.43-7.74 1.48-10.67 4.43Z" class="cls-1"/><path d="M49.84 295.03c-9.95 0-18.41-3.5-25.37-10.51-6.96-7-10.45-15.51-10.45-25.52s3.48-18.51 10.45-25.52c6.96-7 15.42-10.51 25.37-10.51h155.03c9.95 0 18.41 3.5 25.37 10.51 6.96 7 10.45 15.51 10.45 25.52s-3.48 18.51-10.45 25.52c-6.96 7-15.42 10.51-25.37 10.51H49.84Z" class="cls-4"/><path d="M205.01 274.16c4.18 0 7.74-1.48 10.67-4.43 2.94-2.95 4.4-6.53 4.4-10.73s-1.47-7.78-4.4-10.73c-2.94-2.95-6.49-4.43-10.67-4.43s-7.74 1.48-10.67 4.43c-2.94 2.95-4.4 6.53-4.4 10.73s1.47 7.78 4.4 10.73c2.94 2.95 6.49 4.43 10.67 4.43Z" class="cls-3"/><path d="M277.61 295.03c-9.95 0-18.41-3.5-25.37-10.51-6.96-7-10.45-15.51-10.45-25.52s3.48-18.51 10.45-25.52c6.96-7 15.42-10.51 25.37-10.51h59.44c9.95 0 18.41 3.5 25.37 10.51 6.96 7 10.45 15.51 10.45 25.52s-3.48 18.51-10.45 25.52c-6.96 7-15.42 10.51-25.37 10.51h-59.44Z" class="cls-2"/><path d="M337.2 274.16c4.18 0 7.74-1.48 10.67-4.43 2.94-2.95 4.4-6.53 4.4-10.73s-1.47-7.78-4.4-10.73-6.49-4.43-10.67-4.43-7.74 1.48-10.67 4.43c-2.94 2.95-4.4 6.53-4.4 10.73s1.47 7.78 4.4 10.73c2.94 2.95 6.49 4.43 10.67 4.43Z" class="cls-7"/><path d="M49.84 79.12c-9.95 0-18.41-3.5-25.37-10.51-6.96-7-10.45-15.51-10.45-25.52s3.48-18.51 10.45-25.52c6.96-7 15.42-10.51 25.37-10.51h155.03c9.95 0 18.41 3.5 25.37 10.51 6.96 7 10.45 15.51 10.45 25.52s-3.48 18.51-10.45 25.52c-6.96 7-15.42 10.51-25.37 10.51H49.84Z" class="cls-3"/><path d="M205.01 58.25c4.18 0 7.74-1.48 10.67-4.43 2.94-2.95 4.4-6.53 4.4-10.73s-1.47-7.78-4.4-10.73-6.49-4.43-10.67-4.43-7.74 1.48-10.67 4.43c-2.94 2.95-4.4 6.53-4.4 10.73s1.47 7.78 4.4 10.73c2.94 2.95 6.49 4.43 10.67 4.43Z" class="cls-7"/><path d="M277.61 79.12c-9.95 0-18.41-3.5-25.37-10.51-6.96-7-10.45-15.51-10.45-25.52s3.48-18.51 10.45-25.52c6.96-7 15.42-10.51 25.37-10.51h59.44c9.95 0 18.41 3.5 25.37 10.51 6.96 7 10.45 15.51 10.45 25.52s-3.48 18.51-10.45 25.52c-6.96 7-15.42 10.51-25.37 10.51h-59.44Z" style="fill:#428eff;stroke:#202124;stroke-miterlimit:10;stroke-width:2px"/><path d="M337.2 58.25c4.18 0 7.74-1.48 10.67-4.43s4.4-6.53 4.4-10.73-1.47-7.78-4.4-10.73c-2.94-2.95-6.49-4.43-10.67-4.43s-7.74 1.48-10.67 4.43c-2.94 2.95-4.4 6.53-4.4 10.73s1.47 7.78 4.4 10.73 6.49 4.43 10.67 4.43Z" class="cls-1"/></svg>