<svg width="24" height="24" fill="none" xmlns="http://www.w3.org/2000/svg"><g clip-path="url(#a)" fill="#80868B"><path d="M13.32 11.875c0 3.121-2.51 5.652-5.604 5.652-3.096 0-5.605-2.53-5.605-5.652 0-3.123 2.51-5.652 5.605-5.652 3.095 0 5.604 2.53 5.604 5.652ZM19.468 11.875c0 2.939-1.255 5.32-2.802 5.32-1.548 0-2.803-2.382-2.803-5.32s1.255-5.32 2.803-5.32c1.547 0 2.802 2.382 2.802 5.32ZM21.981 11.876c0 2.632-.441 4.766-.986 4.766-.544 0-.985-2.134-.985-4.766 0-2.633.441-4.768.986-4.768.544 0 .985 2.135.985 4.768Z"/></g><defs><clipPath id="a"><path fill="#fff" transform="translate(2 6)" d="M0 0h20v11.628H0z"/></clipPath></defs></svg>