<svg width="24" height="24" fill="none" xmlns="http://www.w3.org/2000/svg"><path fill-rule="evenodd" clip-rule="evenodd" d="M21 6.657a6.9 6.9 0 0 1-2.003.557 3.536 3.536 0 0 0 1.533-1.956c-.674.406-1.42.7-2.214.858A3.462 3.462 0 0 0 15.77 5c-1.926 0-3.488 1.582-3.488 3.534 0 .277.03.547.09.806-2.898-.148-5.468-1.555-7.188-3.693-.3.522-.473 1.13-.473 1.777 0 1.226.616 2.308 1.552 2.942a3.44 3.44 0 0 1-1.58-.443v.045c0 1.712 1.202 3.14 2.798 3.466a3.448 3.448 0 0 1-1.575.06c.443 1.404 1.731 2.426 3.258 2.455A6.94 6.94 0 0 1 4 17.412 9.778 9.778 0 0 0 9.346 19c6.416 0 9.924-5.385 9.924-10.056 0-.153-.004-.306-.01-.457A7.141 7.141 0 0 0 21 6.657Z" fill="#80868B"/></svg>