<svg width="24" height="24" fill="none" xmlns="http://www.w3.org/2000/svg"><path fill-rule="evenodd" clip-rule="evenodd" d="M9.935 14.582V8.989l5.403 2.806-5.403 2.787ZM21.8 8.02s-.195-1.371-.795-1.976c-.76-.792-1.613-.796-2.004-.843C16.203 5 12.004 5 12.004 5h-.008s-4.198 0-6.997.201c-.391.047-1.243.05-2.004.843-.6.605-.795 1.976-.795 1.976S2 9.631 2 11.242v1.51c0 1.61.2 3.221.2 3.221s.195 1.372.795 1.976c.76.793 1.76.768 2.205.851 1.6.153 6.8.2 6.8.2s4.203-.006 7.001-.208c.391-.046 1.244-.05 2.004-.843.6-.604.795-1.976.795-1.976s.2-1.61.2-3.221v-1.51c0-1.611-.2-3.222-.2-3.222Z" fill="#80868B"/></svg>