<svg version="1.2" xmlns="http://www.w3.org/2000/svg" viewBox="0 0 129 28" width="129" height="28"><defs><clipPath clipPathUnits="userSpaceOnUse" id="cp1"><path d="m0.79 0h128.33v28h-128.33z"/></clipPath></defs><style>.a{fill:#202124}</style><g clip-path="url(#cp1)"><path fill-rule="evenodd" class="a" d="m0.8 11.7c0-5.7 4.8-10.3 10.5-10.3q0.9 0 1.9 0.2 1 0.1 1.9 0.5 0.9 0.4 1.7 0.9 0.8 0.6 1.5 1.3l-2 1.9q-0.5-0.4-1.1-0.8-0.6-0.4-1.2-0.7-0.7-0.2-1.4-0.4-0.6-0.1-1.3-0.1c-4.2 0-7.4 3.4-7.4 7.5 0 4.2 3.2 7.5 7.4 7.5 2.6 0 4.2-1.1 5.2-2 0.8-0.8 1.3-2 1.5-3.6h-6.7v-2.8h9.4q0.2 0.9 0.2 1.8c0 2.1-0.6 4.7-2.5 6.6-1.8 1.8-4.1 2.8-7.1 2.8-5.7 0-10.5-4.6-10.5-10.3zm27.7-2.9c3.7 0 6.7 2.8 6.7 6.6 0 3.8-3 6.6-6.7 6.6-3.6 0-6.6-2.8-6.6-6.6 0-3.8 3-6.6 6.6-6.6q0 0 0 0zm0 10.6c2 0 3.8-1.6 3.8-4 0-2.4-1.7-4-3.8-4-2 0-3.7 1.6-3.7 4 0 2.4 1.7 4 3.7 4q0 0 0 0zm14.6-10.6c3.6 0 6.6 2.8 6.6 6.6 0 3.8-3 6.6-6.6 6.6-3.7 0-6.7-2.8-6.7-6.6 0-3.8 3-6.6 6.7-6.6q0 0 0 0zm0 10.6c2 0 3.7-1.6 3.7-4 0-2.4-1.7-4-3.7-4-2 0-3.8 1.6-3.8 4 0 2.4 1.8 4 3.8 4zm25.5 2.2h-2.9v-19.5h2.9z"/><path fill-rule="evenodd" class="a" d="m68.6 21.6h-2.9v-19.5h2.9zm11.3-4l2.2 1.5q-0.4 0.7-1 1.2-0.6 0.6-1.4 0.9-0.7 0.4-1.5 0.6-0.8 0.2-1.6 0.2c-3.8 0-6.6-2.9-6.6-6.6 0-4 2.8-6.7 6.3-6.7 3.4 0 5.1 2.8 5.7 4.3l0.3 0.7-8.9 3.7q1 2 3.2 2c1.5 0 2.5-0.7 3.3-1.8zm-3.5-6.3c-1.5 0-3.6 1.3-3.5 3.9l5.9-2.5c-0.3-0.8-1.3-1.4-2.4-1.4q0 0 0 0zm-12.7-2.2v12c0 4.9-2.9 6.9-6.3 6.9q-1 0-1.9-0.3-0.9-0.3-1.7-0.8-0.8-0.5-1.4-1.2-0.5-0.8-0.9-1.6l2.5-1.1c0.5 1.1 1.6 2.4 3.4 2.4 2.1 0 3.5-1.4 3.5-3.9v-1h-0.1c-0.6 0.8-1.9 1.5-3.5 1.5-3.3 0-6.3-2.9-6.3-6.6 0-3.8 3-6.7 6.3-6.7 1.6 0 2.8 0.7 3.5 1.5h0.1v-1.1zm-6.1 10.3q0 0 0 0 0 0 0 0 0 0 0 0zm0 0c2 0 3.5-1.7 3.5-4 0-2.3-1.5-4-3.5-4-2 0-3.7 1.7-3.7 4 0 2.3 1.7 4 3.7 4zm43.2 2.2h-9.9v-19.5h9.9zm8.1-9.8c0-5.6 4.6-10.1 10.1-10.1 5.6 0 10.1 4.5 10.1 10.1 0 5.6-4.5 10.1-10.1 10.1-5.5 0-10.1-4.5-10.1-10.1zm-4.9 11.8h-1.9l5.4-23.7h1.9z"/></g></svg>