<svg version="1.2" xmlns="http://www.w3.org/2000/svg" viewBox="0 0 129 28" width="129" height="28"><defs><clipPath clipPathUnits="userSpaceOnUse" id="cp1"><path d="m0 0h128.33v28h-128.33z"/></clipPath></defs><style>.a{fill:#e8eaed}.b{fill:#4285f4}</style><g clip-path="url(#cp1)"><path class="a" d="m0 11.7c0-5.7 4.8-10.3 10.5-10.3 1.3 0 2.6 0.2 3.8 0.7 1.2 0.5 2.3 1.2 3.2 2.2l-2 1.9c-1.3-1.3-3.1-2-5-2-4.2 0-7.4 3.4-7.4 7.5 0 4.2 3.2 7.5 7.4 7.5 2.7 0 4.2-1.1 5.2-2 0.8-0.8 1.3-2 1.5-3.6h-6.7v-2.8h9.4q0.2 0.9 0.2 1.8c0 2.1-0.6 4.7-2.4 6.6-1.9 1.8-4.2 2.8-7.2 2.8-5.7 0-10.5-4.6-10.5-10.3z"/><path fill-rule="evenodd" class="a" d="m27.7 8.8c3.7 0 6.7 2.8 6.7 6.6 0 3.8-3 6.6-6.7 6.6-3.6 0-6.6-2.8-6.6-6.6 0-3.8 3-6.6 6.6-6.6zm0 10.6c2.1 0 3.8-1.6 3.8-4 0-2.4-1.7-4-3.8-4-2 0-3.7 1.6-3.7 4 0 2.4 1.7 4 3.7 4z"/><path fill-rule="evenodd" class="a" d="m42.3 8.8c3.6 0 6.6 2.8 6.6 6.6 0 3.8-3 6.6-6.6 6.6-3.7 0-6.7-2.8-6.7-6.6 0-3.8 3-6.6 6.7-6.6zm0 10.6c2 0 3.7-1.6 3.7-4 0-2.4-1.7-4-3.7-4-2 0-3.8 1.6-3.8 4 0 2.4 1.8 4 3.8 4z"/><path class="a" d="m67.8 2.1h-2.9v19.5h2.9z"/><path class="a" d="m67.8 2.1h-2.9v19.5h2.9z"/><path fill-rule="evenodd" class="a" d="m75.8 19.4c1.5 0 2.5-0.7 3.3-1.8l2.2 1.5c-0.6 0.9-1.4 1.6-2.4 2.2-0.9 0.5-2 0.7-3.1 0.7-3.8 0-6.6-2.9-6.6-6.6 0-3.9 2.8-6.6 6.3-6.6 3.4 0 5.1 2.7 5.7 4.2l0.3 0.7-8.9 3.7q1 2 3.2 2zm-0.2-8.1c-1.5 0-3.6 1.3-3.5 3.9l5.9-2.5c-0.3-0.8-1.3-1.4-2.4-1.4z"/><path fill-rule="evenodd" class="a" d="m62.9 9.2v11.9c0 4.9-2.9 6.9-6.3 6.9-1.3 0-2.5-0.4-3.6-1.1-1-0.7-1.8-1.7-2.3-2.8l2.5-1.1c0.5 1.1 1.6 2.4 3.4 2.4 2.2 0 3.5-1.4 3.5-3.9v-1h-0.1c-0.6 0.8-1.9 1.5-3.5 1.5-3.3 0-6.3-2.8-6.3-6.6 0-3.7 3-6.6 6.3-6.6 1.6 0 2.9 0.7 3.5 1.4h0.1v-1zm-6.1 10.2q0 0 0 0 0 0 0 0zm0 0c2 0 3.5-1.6 3.5-4 0-2.3-1.5-4-3.5-4-2 0-3.7 1.7-3.7 4 0 2.3 1.7 4 3.7 4z"/><path class="b" d="m100 2.1h-9.9v19.6h9.9z"/><path class="b" d="m118.2 22c5.6 0 10.1-4.5 10.1-10.1 0-5.6-4.5-10.1-10.1-10.1-5.5 0-10.1 4.5-10.1 10.1 0 5.6 4.6 10.1 10.1 10.1z"/><path class="a" d="m103.2 23.7h-1.9l5.4-23.7h1.9z"/></g></svg>