<svg xmlns="http://www.w3.org/2000/svg" width="344" height="361" fill="none"><g stroke="#202124" stroke-linecap="round" stroke-linejoin="round" stroke-width="1.766" clip-path="url(#a)"><path fill="#428EFF" d="M139.164 286.147c34.482-11.467 67.85-25.216 99.284-40.988 59.446-31.221 101.678-60.3 134.589-90.682V40.041c-10.784 59.181-52.302 123.619-122.955 170.623-1.154.783-2.38 1.514-3.492 2.338-78.685 58.929-189.46 93.122-300.654 93.556v10.747c66.423-.37 132.742-10.75 193.228-31.158Z"/><path fill="#FF5145" d="M193.796 285.977c.852-.279 1.706-.567 2.56-.855 67.625-22.7 126.488-52.056 176.681-85.08v-45.564c-32.911 30.308-75.143 59.319-134.589 90.461-31.434 15.734-64.804 29.453-99.284 40.888-60.488 20.359-126.805 30.71-193.228 31.083v8.896c85.047-.376 169.996-13.645 247.864-39.829h-.004Z"/><path fill="#38A852" d="M193.799 286.038c-77.868 26.143-162.817 39.389-247.864 39.764v9.813c148.042-.501 295.944-31.015 427.102-91.545v-43.818c-50.193 32.968-109.055 62.275-176.68 84.936-.854.287-1.706.575-2.56.853l.002-.003Z"/><path fill="#DADCE0" d="M282.994 329.879a1318.248 1318.248 0 0 1-124.324 15.948c-71.895 5.616-142.327 8.469-212.734 8.565v10.649h427.101v-54.93c-27.739 6.832-57.483 13.374-90.045 19.768h.002Z"/><path fill="#202124" d="M211.767 321.956c-.961.171-1.92.343-2.878.511-87.609 15.265-175.28 22.995-262.954 23.209v8.902c70.405-.096 140.837-2.961 212.734-8.602a1312.341 1312.341 0 0 0 124.324-16.016c32.559-6.423 62.303-12.992 90.044-19.853v-28.768c-51.023 16.78-104.895 30.545-161.268 40.617h-.002Z"/><path fill="#FFBB01" d="M-54.065 345.423c87.674-.209 175.348-7.918 262.955-23.134.961-.171 1.917-.339 2.878-.509 56.373-10.041 110.246-23.761 161.269-40.488v-37.227c-131.158 60.544-279.06 91.066-427.101 91.567v9.791Z"/></g><defs><clipPath id="a"><path fill="#fff" d="M0 .041h344v360H0z"/></clipPath></defs></svg>