<svg xmlns="http://www.w3.org/2000/svg" width="1401" height="360" fill="none"><path fill="#428EFF" stroke="#202124" stroke-linecap="round" stroke-linejoin="round" stroke-width="2" d="M659.33 199.312c121.403-23.469 238.883-51.613 349.56-83.895 209.29-63.904 357.98-123.425 473.85-185.611v-234.232c-37.97 121.134-184.14 253.027-432.89 349.238-4.07 1.601-8.38 3.098-12.3 4.785C760.519 170.214 370.504 240.203-20.984 241.09v21.998c233.862-.758 467.356-22.004 680.314-63.776Z"/><path fill="#FF5145" stroke="#202124" stroke-linecap="round" stroke-linejoin="round" stroke-width="2" d="M851.691 199.613c2.999-.573 6.007-1.164 9.014-1.755 238.095-46.575 445.335-106.81 622.055-174.57v-93.49C1366.88-8.013 1218.19 51.513 1008.9 115.41c-110.672 32.282-228.159 60.432-349.554 83.895-212.967 41.772-446.453 63.012-680.315 63.776v18.253c299.431-.77 598.518-27.996 872.675-81.721h-.015Z"/><path fill="#38A852" stroke="#202124" stroke-linecap="round" stroke-linejoin="round" stroke-width="2" d="M851.691 199.616c-274.158 53.731-573.244 80.957-872.675 81.727v20.168c521.224-1.028 1041.954-63.745 1503.734-188.155v-90.06c-176.72 67.76-383.96 127.995-622.052 174.571-3.008.591-6.008 1.182-9.015 1.755l.008-.006Z"/><path fill="#DADCE0" stroke="#202124" stroke-linecap="round" stroke-linejoin="round" stroke-width="2" d="M1165.72 289.441c-147.08 15.223-293.658 26.049-437.719 32.805-253.129 11.553-501.104 17.422-748.993 17.619v21.905H1482.74V248.777c-97.66 14.054-202.38 27.51-317.03 40.664h.01Z"/><path fill="#202124" stroke="#202124" stroke-linecap="round" stroke-linejoin="round" stroke-width="2" d="M914.957 273.044c-3.383.351-6.759.702-10.134 1.047-308.454 31.266-617.127 47.099-925.807 47.536v18.235c247.881-.197 495.856-6.066 748.993-17.619 144.053-6.756 290.631-17.576 437.721-32.805 114.63-13.154 219.36-26.61 317.03-40.664v-58.922c-179.64 34.369-369.32 62.562-567.795 83.192h-.008Z"/><path fill="#FFBB01" stroke="#202124" stroke-linecap="round" stroke-linejoin="round" stroke-width="2" d="M-20.984 321.627c308.68-.431 617.361-16.27 925.807-47.536 3.383-.351 6.751-.695 10.134-1.046 198.473-20.631 388.153-48.824 567.793-83.193v-76.493C1020.97 237.764 500.24 300.48-20.984 301.508v20.119Z"/></svg>