<svg xmlns="http://www.w3.org/2000/svg" width="100" height="100" fill="none"><g clip-path="url(#a)"><rect width="100" height="100" fill="#E8EAED" rx="10"/><rect width="98.56" height="109.465" x="46.097" y="12.002" fill="#E8EAED" stroke="#202124" stroke-width="1.22" rx="8.51"/><mask id="b" width="89" height="81" x="50" y="23" maskUnits="userSpaceOnUse" style="mask-type:alpha"><rect width="79.034" height="86.786" x="138.355" y="23.858" fill="#E8EAED" stroke="#202124" stroke-width="1.22" rx="2.662" transform="rotate(90 138.355 23.858)"/></mask><g stroke="#202124" stroke-miterlimit="10" stroke-width="1.22" mask="url(#b)"><path fill="#FFBB01" d="M116.934 51.998 89.938 30.715c-2.008-1.583-5.03-.467-5.44 2.007l-5.535 33.284c-.413 2.474 2.096 4.453 4.516 3.558l32.532-11.999c2.417-.891 2.931-3.984.926-5.567h-.003Z"/><path fill="#428EFF" d="M40.472 81.562v.002c.253 5.481 4.901 9.72 10.383 9.468l33.285-1.534c5.482-.253 9.72-4.902 9.468-10.384v-.002c-.253-5.481-4.901-9.72-10.383-9.468L49.94 71.18c-5.482.252-9.72 4.901-9.468 10.383Z"/><path fill="#fff" d="M42.296 56.763c0-7.68 6.227-13.907 13.908-13.907 7.68 0 13.907 6.226 13.907 13.907s-6.226 13.908-13.907 13.908-13.908-6.227-13.908-13.908Z"/></g><rect width="79.034" height="86.786" x="138.356" y="23.859" stroke="#202124" stroke-width="1.22" rx="2.662" transform="rotate(90 138.356 23.859)"/><path fill="#E8EAED" stroke="#202124" stroke-width="1.22" d="M23.631 22.234a3.038 3.038 0 0 1 3.037-2.934h17.118a3.038 3.038 0 0 1 3.037 2.934l.66 19.151a3.038 3.038 0 0 1-3.036 3.143h-18.44a3.038 3.038 0 0 1-3.036-3.143l.66-19.151ZM46.824 104.52a3.039 3.039 0 0 1-3.037 2.934H26.67a3.039 3.039 0 0 1-3.037-2.934l-.66-19.151a3.038 3.038 0 0 1 3.036-3.143h18.44a3.038 3.038 0 0 1 3.036 3.143l-.66 19.151Z"/><rect width="48.027" height="48.027" x="10.986" y="39.364" fill="#E8EAED" stroke="#202124" stroke-width="1.22" rx="24.014"/><mask id="c" width="41" height="41" x="14" y="43" maskUnits="userSpaceOnUse" style="mask-type:alpha"><rect width="38.451" height="38.451" x="15.546" y="44.379" fill="#E8EAED" stroke="#202124" stroke-width="1.22" rx="19.226"/></mask><g stroke="#202124" stroke-miterlimit="10" stroke-width="1.22" mask="url(#c)"><path fill="#428EFF" d="M26.794 82.477v.002c.253 5.481 4.902 9.72 10.384 9.468l33.284-1.535c5.482-.252 9.721-4.9 9.468-10.383v-.001c-.253-5.482-4.901-9.721-10.383-9.469l-33.285 1.535c-5.481.252-9.72 4.901-9.468 10.383Z"/><path fill="#fff" d="M42.296 56.765c0-7.68 6.227-13.907 13.908-13.907 7.68 0 13.907 6.226 13.907 13.907s-6.226 13.908-13.907 13.908-13.908-6.227-13.908-13.908Z"/></g><rect width="38.451" height="38.451" x="15.546" y="44.38" stroke="#202124" stroke-width="1.22" rx="19.226"/></g><defs><clipPath id="a"><rect width="100" height="100" fill="#fff" rx="10"/></clipPath></defs></svg>