<svg xmlns="http://www.w3.org/2000/svg" width="100" height="100" fill="none"><g clip-path="url(#a)"><rect width="100" height="100" fill="#E8EAED" rx="10"/><path fill="#FFBB01" stroke="#202124" stroke-width="1.22" d="M81.247 69.84h-.001L50 94.168 18.712 69.84l-6.385-4.975L50 35.565l37.672 29.3-6.425 4.975Z"/><path fill="#428EFF" stroke="#202124" stroke-width="1.22" d="m81.247 54.522-.001.001L50 78.85 18.712 54.523l-6.385-4.974L50 20.247l37.672 29.3-6.425 4.975Z"/><path fill="#FFBB01" stroke="#202124" stroke-width="1.22" d="M81.247 39.766h-.001L50 64.094 18.712 39.767l-6.385-4.975L50 5.49l37.672 29.3-6.425 4.976Z"/><path fill="#428EFF" stroke="#202124" stroke-width="1.22" d="M3.875 69.84h-.001l-31.246 24.327L-58.66 69.84h-.001l-6.384-4.975 37.673-29.301 37.672 29.3-6.425 4.975Z"/><path fill="#FFBB01" stroke="#202124" stroke-width="1.22" d="m3.875 54.522-.001.001-31.246 24.326-31.288-24.326h-.001l-6.384-4.974 37.673-29.302 37.672 29.3-6.425 4.975Z"/><path fill="#428EFF" stroke="#202124" stroke-width="1.22" d="M3.875 39.766h-.001l-31.246 24.327-31.288-24.326h-.001l-6.384-4.975L-27.372 5.49 10.3 34.79l-6.425 4.976ZM158.617 69.84h-.001L127.37 94.168 96.081 69.84l-6.385-4.975 37.674-29.301 37.671 29.3-6.424 4.975Z"/><path fill="#FFBB01" stroke="#202124" stroke-width="1.22" d="m158.617 54.522-.001.001L127.37 78.85 96.081 54.523l-6.385-4.974 37.674-29.302 37.671 29.3-6.424 4.975Z"/><path fill="#428EFF" stroke="#202124" stroke-width="1.22" d="M158.617 39.766h-.001L127.37 64.094 96.081 39.767l-6.385-4.975L127.37 5.49l37.671 29.3-6.424 4.976Z"/></g><defs><clipPath id="a"><rect width="100" height="100" fill="#fff" rx="10"/></clipPath></defs></svg>