<svg xmlns="http://www.w3.org/2000/svg" width="100" height="100" fill="none"><g clip-path="url(#a)"><rect width="100" height="100" fill="#428EFF" rx="10"/><path stroke="#202124" stroke-miterlimit="10" stroke-width="1.22" d="m-42.452 50.395 132.284-.003M15.551 50.395l35.964-22.968h39.348M16.203 73.349h41.078M16.205 27.44l-36.078 22.956M106.605 87.345 51.173 50.392M16.205 73.347l35.44-22.955M14.398 73.348l-34.272-22.951"/><path fill="#FF5145" stroke="#202124" stroke-miterlimit="10" stroke-width="1.22" d="M10.05 50.396a6.035 6.035 0 1 0 12.07 0 6.035 6.035 0 0 0-12.07 0Z"/><path fill="#E8EAED" stroke="#202124" stroke-miterlimit="10" stroke-width="1.22" d="M10.379 27.67a6.035 6.035 0 1 0 12.07 0 6.035 6.035 0 0 0-12.07 0Z"/><path fill="#428EFF" stroke="#202124" stroke-miterlimit="10" stroke-width="1.22" d="M10.379 73.407a6.035 6.035 0 1 0 12.07 0 6.035 6.035 0 0 0-12.07 0ZM45.271 27.67a6.035 6.035 0 1 0 12.07 0 6.035 6.035 0 0 0-12.07 0Z"/><path fill="#E8EAED" stroke="#202124" stroke-miterlimit="10" stroke-width="1.22" d="M45.271 73.407a6.035 6.035 0 1 0 12.07 0 6.035 6.035 0 0 0-12.07 0Z"/><path fill="#FF5145" stroke="#202124" stroke-miterlimit="10" stroke-width="1.22" d="M45.271 50.392a6.035 6.035 0 1 0 12.07 0 6.035 6.035 0 0 0-12.07 0ZM80.493 73.407a6.035 6.035 0 1 0 12.07 0 6.035 6.035 0 0 0-12.07 0Z"/><path fill="#E8EAED" stroke="#202124" stroke-miterlimit="10" stroke-width="1.22" d="M80.493 27.67a6.035 6.035 0 1 0 12.07 0 6.035 6.035 0 0 0-12.07 0Z"/><path fill="#428EFF" stroke="#202124" stroke-miterlimit="10" stroke-width="1.22" d="M80.493 50.392a6.035 6.035 0 1 0 12.07 0 6.035 6.035 0 0 0-12.07 0Z"/></g><defs><clipPath id="a"><rect width="100" height="100" fill="#fff" rx="10"/></clipPath></defs></svg>