<svg xmlns="http://www.w3.org/2000/svg" width="100" height="100" fill="none"><g clip-path="url(#a)"><rect width="100" height="100" fill="#428EFF" rx="10"/><g clip-path="url(#b)"><path fill="#38A852" stroke="#202124" stroke-linejoin="round" stroke-width="1.22" d="m-84.69 185.239 308.297-308.087V6.589L-9.894 239.93h-69.451a5.21 5.21 0 0 1-5.213-5.197l-.131-49.489v-.006Z"/><path fill="#38A852" stroke="#202124" stroke-linecap="round" stroke-linejoin="round" stroke-width="1.22" d="m12.257 185.24 211.25-211.106V103.57L89.013 237.973a6.676 6.676 0 0 1-4.72 1.953H17.6a5.21 5.21 0 0 1-5.213-5.197l-.131-49.489Z"/><path fill="#FF5145" stroke="#202124" stroke-miterlimit="10" stroke-width="1.22" d="m-84.69 105.005 308.297-308.087v129.436L-9.894 159.697h-69.451a5.21 5.21 0 0 1-5.213-5.197l-.131-49.489v-.006Z"/><path fill="#FFBB01" stroke="#202124" stroke-linecap="round" stroke-linejoin="round" stroke-width="1.22" d="m12.257 105.008 211.25-211.107V23.338L89.013 157.74a6.675 6.675 0 0 1-4.72 1.952H17.6a5.21 5.21 0 0 1-5.213-5.197l-.131-49.488ZM-84.69 24.983l308.297-308.087v129.437L-9.894 79.675h-69.451a5.21 5.21 0 0 1-5.213-5.197l-.131-49.488v-.007Z"/><path fill="#FF5145" stroke="#202124" stroke-linecap="round" stroke-linejoin="round" stroke-width="1.22" d="m12.257 24.983 211.25-211.106v129.436L89.013 77.716a6.675 6.675 0 0 1-4.72 1.953H17.6a5.21 5.21 0 0 1-5.213-5.197l-.131-49.489Z"/><path fill="#FFBB01" stroke="#202124" stroke-linecap="round" stroke-linejoin="round" stroke-width="1.22" d="m-84.69-55.076 308.297-308.087v129.436L-9.894-.384h-69.451a5.21 5.21 0 0 1-5.213-5.197l-.131-49.489v-.006Z"/><path fill="#FF5145" stroke="#202124" stroke-linecap="round" stroke-linejoin="round" stroke-width="1.22" d="m12.257-55.075 211.25-211.107v129.437L89.075-2.405a6.893 6.893 0 0 1-4.87 2.015H17.601a5.21 5.21 0 0 1-5.213-5.197l-.131-49.488Z"/><path fill="#fff" stroke="#202124" stroke-miterlimit="10" stroke-width="1.22" d="M83.668-.384H15.285a3.955 3.955 0 0 1-3.952-3.95v-44.24H87.62v44.24a3.955 3.955 0 0 1-3.952 3.95Z"/><path fill="#E8EAED" stroke="#202124" stroke-miterlimit="10" stroke-width="1.22" d="M15.29 23.47h68.383a3.956 3.956 0 0 1 3.953 3.95v4.53H11.338v-4.53a3.955 3.955 0 0 1 3.952-3.95Z"/><path fill="#202124" d="M16.184 29.142a1.436 1.436 0 1 0 .001-2.872 1.436 1.436 0 0 0-.001 2.872ZM20.63 29.142a1.436 1.436 0 1 0 0-2.872 1.436 1.436 0 0 0 0 2.872Z"/><path fill="#fff" stroke="#202124" stroke-miterlimit="10" stroke-width="1.22" d="M83.668 79.994H15.285a3.955 3.955 0 0 1-3.952-3.95v-44.24H87.62v44.24a3.955 3.955 0 0 1-3.952 3.95Z"/></g></g><defs><clipPath id="a"><rect width="100" height="100" fill="#fff" rx="10"/></clipPath><clipPath id="b"><path fill="#fff" d="M-90.565-169.889h314.15v410.533h-314.15z"/></clipPath></defs></svg>