<svg xmlns="http://www.w3.org/2000/svg" width="91" height="90" fill="none"><path fill="#fff" stroke="#202124" stroke-miterlimit="10" stroke-width="1.5" d="M16.167 30.333c8.1 0 14.666-6.566 14.666-14.666C30.833 7.567 24.267 1 16.167 1 8.067 1 1.5 7.566 1.5 15.667c0 8.1 6.566 14.666 14.667 14.666Z"/><path fill="#202124" stroke="#202124" stroke-miterlimit="10" stroke-width="1.5" d="m14.78 21.23-4.176-4.339.8-.832 3.377 3.506 7.16-7.439.8.835-7.96 8.269Z"/><path stroke="#202124" stroke-miterlimit="10" stroke-width="1.5" d="M60.166 45.506H30.833"/><path fill="#428EFF" stroke="#202124" stroke-miterlimit="10" stroke-width="1.5" d="M89.5 59.667H30.833V89H89.5V59.667ZM74.833 1H45.5c-8.1 0-14.667 6.566-14.667 14.667 0 8.1 6.567 14.666 14.667 14.666h29.333c8.1 0 14.667-6.566 14.667-14.666C89.5 7.567 82.933 1 74.833 1Z"/><path fill="#E8EAED" stroke="#202124" stroke-miterlimit="10" stroke-width="1.5" d="M89.5 30.333H60.167v29.334H89.5V30.333Z"/><path fill="#428EFF" stroke="#202124" stroke-miterlimit="10" stroke-width="1.5" d="M30.833 30.333H1.5v29.334h29.333V30.333Z"/><path fill="#202124" stroke="#202124" stroke-miterlimit="10" stroke-width="1.5" d="M46.006 49.552a4.046 4.046 0 1 0 0-8.092 4.046 4.046 0 0 0 0 8.092Z"/><path stroke="#202124" stroke-miterlimit="10" stroke-width="1.5" d="M16.673 59.667v15.172h14.16"/><path fill="#202124" stroke="#202124" stroke-miterlimit="10" stroke-width="1.5" d="M16.672 78.885a4.046 4.046 0 1 0 0-8.092 4.046 4.046 0 0 0 0 8.092Z"/></svg>